<svg width="34" height="34" viewBox="0 0 34 34" fill="none" xmlns="http://www.w3.org/2000/svg">
<path d="M16.8182 0C26.0877 0 33.6364 7.54506 33.6364 16.8279C33.6364 26.0913 26.0877 33.6364 16.8182 33.6364C7.5487 33.6364 0 26.0913 0 16.8279C0 7.54506 7.5487 0 16.8182 0ZM14.9026 10.1412C14.5455 10.1412 14.2045 10.2223 13.8799 10.3846C13.474 10.6118 13.1493 10.9687 12.9708 11.3906C12.8571 11.6827 12.6786 12.5589 12.6786 12.5751C12.5 13.5324 12.4026 15.0901 12.4026 16.8101C12.4026 18.4505 12.5 19.9417 12.6461 20.9152C12.6623 20.9315 12.8409 22.0186 13.0357 22.3918C13.3929 23.0733 14.0909 23.4952 14.8377 23.4952H14.9026C15.3896 23.4789 16.4123 23.0571 16.4123 23.0408C18.1331 22.3269 21.526 20.1039 22.8896 18.6274L22.987 18.53C23.1656 18.3515 23.3929 18.0757 23.4416 18.0108C23.7013 17.67 23.8312 17.2482 23.8312 16.8279C23.8312 16.3557 23.6851 15.9176 23.4091 15.5607C23.3442 15.4958 23.1006 15.2199 22.8734 14.9928C21.5422 13.5649 18.0682 11.2283 16.25 10.5144C15.974 10.4024 15.276 10.1574 14.9026 10.1412Z" fill="white"/>
</svg>
