<svg width="34" height="35" viewBox="0 0 34 35" fill="none" xmlns="http://www.w3.org/2000/svg">
<path d="M33.3167 18.826C33.4378 18.8941 33.462 19.0385 33.4669 19.0936L33.4681 19.1155L33.3335 27.8013C33.3335 31.266 30.6489 34.0915 27.2686 34.2647L26.9394 34.2731H6.68016C3.257 34.2731 0.465492 31.5559 0.294366 28.1345L0.286052 27.8013L0.168266 19.1155C0.168266 19.1155 0.168266 18.9111 0.319705 18.826C0.454318 18.7408 0.622584 18.843 0.639411 18.86C4.03838 21.1422 8.12724 22.6579 12.418 23.2881C13.0238 23.3733 13.6295 22.9815 13.7978 22.3684C14.1449 21.0592 15.2166 20.169 16.5277 20.0629L16.7929 20.0522H16.8434C18.2737 20.0522 19.4684 20.9719 19.8386 22.3684C20.0068 22.9815 20.6126 23.3733 21.2183 23.2881C25.5091 22.6579 29.598 21.1422 32.9969 18.86C32.9969 18.86 33.0306 18.843 33.0643 18.826C33.1316 18.7919 33.2325 18.7749 33.3167 18.826ZM16.8098 22.4876C16.1774 22.4876 15.6439 22.9742 15.5594 23.5931L15.5478 23.765V25.962C15.5478 26.6773 16.1199 27.2393 16.8098 27.2393C17.4576 27.2393 17.9782 26.767 18.0604 26.1374L18.0718 25.962V23.765C18.0718 23.0667 17.5165 22.4876 16.8098 22.4876ZM18.9804 0.636719C21.5044 0.636719 23.5741 2.56122 23.8938 5.03071H27.2254C30.759 5.03071 33.6364 7.94301 33.6364 11.5195C33.6364 11.5195 33.5354 13.0336 33.5017 15.142C33.4984 15.3089 33.4176 15.4724 33.2847 15.5712C32.4753 16.169 31.735 16.6629 31.6676 16.6969C28.8744 18.5703 25.6286 19.8885 22.1707 20.5442C21.9452 20.5885 21.7231 20.471 21.6087 20.27C20.6395 18.5908 18.829 17.4974 16.8098 17.4974C14.804 17.4974 12.9767 18.5789 11.9789 20.2598C11.8627 20.4574 11.644 20.5715 11.4202 20.5289C7.99095 19.8715 4.7451 18.555 1.96871 16.714L0.353358 15.5899C0.218746 15.5048 0.134613 15.3515 0.134613 15.1812C0.084133 14.3126 0 11.5195 0 11.5195C0 7.94301 2.87735 5.03071 6.41093 5.03071H9.72577C10.0455 2.56122 12.1151 0.636719 14.6391 0.636719H18.9804ZM18.9804 3.19137H14.6391C13.5118 3.19137 12.5526 3.97479 12.2834 5.03071H21.3361C21.0669 3.97479 20.1078 3.19137 18.9804 3.19137Z" fill="white"/>
</svg>
