<svg width="37" height="28" viewBox="0 0 37 28" fill="none" xmlns="http://www.w3.org/2000/svg">
<path d="M18.4143 17.9992C24.1849 17.9992 29.1122 18.914 29.1122 22.5749C29.1122 26.2344 24.2165 27.1825 18.4143 27.1825C12.6436 27.1825 7.71633 26.2677 7.71633 22.6083C7.71633 18.9473 12.612 17.9992 18.4143 17.9992ZM27.6408 15.7947C29.847 15.7538 32.2188 16.0568 33.0952 16.2718C34.952 16.6369 36.1733 17.3821 36.6792 18.4651C37.1069 19.3542 37.1069 20.3857 36.6792 21.2732C35.9052 22.953 33.4099 23.4922 32.4401 23.6316C32.2398 23.6619 32.0787 23.4877 32.0998 23.2862C32.5952 18.6317 28.6543 16.4248 27.6348 15.9174C27.5911 15.8947 27.5821 15.8599 27.5866 15.8387C27.5896 15.8235 27.6077 15.7993 27.6408 15.7947ZM8.94489 15.7916L9.36033 15.7953C9.39346 15.7999 9.41002 15.8241 9.41303 15.8377C9.41755 15.8605 9.40851 15.8938 9.36635 15.918C8.34535 16.4254 4.40439 18.6323 4.89984 23.2853C4.92092 23.4883 4.76129 23.661 4.56101 23.6322C3.59121 23.4928 1.09592 22.9536 0.321887 21.2739C-0.107296 20.3847 -0.107296 19.3548 0.321887 18.4657C0.827871 17.3827 2.04765 16.6375 3.90443 16.2709C4.78238 16.0574 7.15267 15.7544 9.36033 15.7953L8.94489 15.7916ZM18.4143 0.273438C22.3432 0.273438 25.4935 3.43907 25.4935 7.39232C25.4935 11.3441 22.3432 14.5127 18.4143 14.5127C14.4854 14.5127 11.335 11.3441 11.335 7.39232C11.335 3.43907 14.4854 0.273438 18.4143 0.273438ZM28.0248 1.46063C31.8197 1.46063 34.7999 5.05188 33.7849 9.05208C33.0997 11.7451 30.6195 13.534 27.8561 13.4613C27.5791 13.4537 27.3065 13.4279 27.043 13.3825C26.8517 13.3492 26.7553 13.1326 26.8638 12.972C27.9179 11.4119 28.5187 9.53526 28.5187 7.52077C28.5187 5.41842 27.8622 3.45846 26.7222 1.85141C26.6861 1.80142 26.659 1.72418 26.6951 1.66662C26.7252 1.61966 26.7809 1.59543 26.8336 1.58331C27.2176 1.50455 27.6122 1.46063 28.0248 1.46063ZM8.97406 1.46047C9.38668 1.46047 9.78123 1.5044 10.1667 1.58316C10.2179 1.59528 10.2752 1.62103 10.3053 1.66647C10.3399 1.72402 10.3143 1.80127 10.2782 1.85126C9.1382 3.45831 8.48163 5.41827 8.48163 7.52062C8.48163 9.53511 9.08249 11.4118 10.1366 12.9719C10.245 13.1324 10.1487 13.349 9.95742 13.3823C9.69238 13.4293 9.42132 13.4535 9.14423 13.4611C6.38089 13.5338 3.90067 11.745 3.21548 9.05193C2.199 5.05173 5.17918 1.46047 8.97406 1.46047Z" fill="white"/>
</svg>
