<svg width="34" height="33" viewBox="0 0 34 33" fill="none" xmlns="http://www.w3.org/2000/svg">
<path d="M26.7727 20.0617C26.3371 20.4838 26.1369 21.0943 26.2362 21.6931L27.7313 29.9676C27.8574 30.6689 27.5614 31.3787 26.9745 31.784C26.3993 32.2044 25.6341 32.2549 25.0067 31.9185L17.558 28.0335C17.299 27.8956 17.0114 27.8216 16.7171 27.8132H16.2613C16.1032 27.8368 15.9485 27.8872 15.8072 27.9646L8.35675 31.8681C7.98843 32.0531 7.57134 32.1187 7.16266 32.0531C6.16702 31.8647 5.5027 30.9162 5.66584 29.9155L7.16266 21.6409C7.26188 21.0372 7.06175 20.4233 6.62616 19.9944L0.553109 14.1081C0.0452003 13.6153 -0.131391 12.8753 0.1007 12.2076C0.326064 11.5416 0.901246 11.0556 1.59584 10.9463L9.95447 9.73366C10.5902 9.66807 11.1486 9.28125 11.4345 8.70944L15.1177 1.15807C15.2051 0.98989 15.3178 0.835163 15.454 0.703981L15.6054 0.586254C15.6844 0.498799 15.7752 0.426481 15.8762 0.367617L16.0595 0.300344L16.3454 0.182617H17.0534C17.6858 0.248208 18.2425 0.626617 18.5334 1.19171L22.2654 8.70944C22.5345 9.25939 23.0575 9.64116 23.6613 9.73366L32.0199 10.9463C32.7263 11.0472 33.3166 11.5349 33.5504 12.2076C33.7707 12.882 33.5807 13.622 33.0627 14.1081L26.7727 20.0617Z" fill="white"/>
</svg>
