<svg width="55" height="55" viewBox="0 0 55 55" fill="none" xmlns="http://www.w3.org/2000/svg">
<path d="M49.409 44.0861C46.7795 47.5646 43.3602 50.3677 39.4335 52.264C35.5068 54.1604 31.1853 55.0956 26.8258 54.9924C22.4663 54.8893 18.1939 53.7507 14.3613 51.6708C10.5287 49.5908 7.2458 46.6292 4.78374 43.0303C4.38061 42.4485 4.14426 41.7676 4.10027 41.0612C4.05629 40.3548 4.20635 39.6499 4.53421 39.0226C4.86207 38.3953 5.35524 37.8697 5.96036 37.5025C6.56548 37.1353 7.2595 36.9406 7.96732 36.9395V36.9395C8.60439 36.9433 9.2309 37.1024 9.79254 37.4031C10.3542 37.7038 10.834 38.137 11.1903 38.6651C11.883 39.6686 12.665 40.6074 13.5268 41.4702C15.3576 43.3117 17.5345 44.7732 19.9323 45.7705C22.3301 46.7677 24.9013 47.2811 27.4983 47.2811C30.0952 47.2811 32.6665 46.7677 35.0642 45.7705C37.462 44.7732 39.6389 43.3117 41.4698 41.4702C42.1002 40.7965 42.7069 40.1031 43.2625 39.3821C43.6427 38.8787 44.1431 38.4787 44.7178 38.2185C45.2925 37.9584 45.9233 37.8464 46.5524 37.8929H46.6234C47.3154 37.9477 47.98 38.1876 48.5476 38.5873C49.1151 38.987 49.5648 39.5319 49.8496 40.165C50.1343 40.7981 50.2437 41.4961 50.1661 42.1859C50.0886 42.8757 49.8271 43.532 49.409 44.0861V44.0861Z" fill="white"/>
<path d="M20.9381 0.752805C11.9626 2.80541 2.81374 11.9693 0.745206 20.944C0.282716 22.9543 0.0331136 25.0077 0.000529769 27.0703C-0.00679799 27.4517 0.061957 27.8308 0.202773 28.1854C0.343589 28.54 0.553642 28.863 0.820676 29.1355C1.08771 29.408 1.40637 29.6246 1.75804 29.7726C2.10971 29.9206 2.48735 29.9971 2.86891 29.9975L14.4212 30.0724H52.4232C53.1053 30.0703 53.7589 29.7987 54.2416 29.3168C54.7243 28.8349 54.9969 28.1818 55 27.4997C55 10.1412 39.0309 -3.39181 20.9381 0.752805ZM8.37713 22.5002C9.27996 19.1112 11.0555 16.0182 13.5268 13.5294C15.3576 11.6878 17.5346 10.2264 19.9323 9.22909C22.3301 8.23182 24.9014 7.71842 27.4983 7.71842C30.0952 7.71842 32.6665 8.23182 35.0643 9.22909C37.462 10.2264 39.639 11.6878 41.4698 13.5294C43.9384 16.0195 45.7125 19.1122 46.6155 22.5002H8.37713Z" fill="white"/>
</svg>
