<svg width="33" height="38" viewBox="0 0 33 38" fill="none" xmlns="http://www.w3.org/2000/svg">
<path d="M12.28 32.733C13.2299 32.5321 19.0176 32.5321 19.9675 32.733C20.7794 32.9206 21.6575 33.3588 21.6575 34.3156C21.6103 35.2265 21.0759 36.034 20.3376 36.5469C19.3802 37.2932 18.2566 37.7658 17.0821 37.9361C16.4325 38.0203 15.7942 38.0222 15.1673 37.9361C13.9909 37.7658 12.8673 37.2932 11.9118 36.5449C11.1716 36.034 10.6372 35.2265 10.59 34.3156C10.59 33.3588 11.4681 32.9206 12.28 32.733ZM16.2359 0C20.1882 0 24.2255 1.87534 26.6237 4.98686C28.1796 6.99041 28.8934 8.99204 28.8934 12.1036V12.913C28.8934 15.2993 29.5241 16.7058 30.9121 18.3266C31.9639 19.5207 32.3 21.0535 32.3 22.7164C32.3 24.3775 31.7543 25.9543 30.6609 27.2345C29.2296 28.7692 27.2109 29.749 25.1508 29.9193C22.1653 30.1738 19.1779 30.3881 16.1509 30.3881C13.1221 30.3881 10.1366 30.2599 7.15113 29.9193C5.08907 29.749 3.07044 28.7692 1.64096 27.2345C0.547618 25.9543 0 24.3775 0 22.7164C0 21.0535 0.338012 19.5207 1.38793 18.3266C2.81929 16.7058 3.40845 15.2993 3.40845 12.913V12.1036C3.40845 8.90785 4.20533 6.81819 5.84629 4.77254C8.28602 1.78922 12.1968 0 16.066 0H16.2359Z" fill="#2A3993"/>
</svg>
