<svg width="175" height="55" viewBox="0 0 175 55" fill="none" xmlns="http://www.w3.org/2000/svg">
<path d="M3.80342 53.3086C2.79469 53.3086 1.82728 52.9098 1.114 52.1997C0.400716 51.4897 0 50.5267 0 49.5226L0 5.62597C-5.45194e-07 4.62147 0.400589 3.65806 1.11376 2.9474C1.82692 2.23675 2.79433 1.83698 3.80342 1.83594C4.81251 1.83698 5.77992 2.23675 6.49308 2.9474C7.20625 3.65806 7.60684 4.62147 7.60684 5.62597V22.0626H37.9669V5.62597C37.9669 4.62147 38.3675 3.65806 39.0807 2.9474C39.7938 2.23675 40.7612 1.83698 41.7703 1.83594C42.7801 1.83594 43.7485 2.23524 44.4626 2.94601C45.1766 3.65678 45.5777 4.62079 45.5777 5.62597V49.5226C45.5767 50.527 45.1751 51.49 44.4612 52.2C43.7473 52.9099 42.7794 53.3086 41.7703 53.3086C40.7616 53.3086 39.7942 52.9098 39.0809 52.1997C38.3676 51.4897 37.9669 50.5267 37.9669 49.5226V29.6308H7.60684V49.5226C7.60684 50.5267 7.20612 51.4897 6.49284 52.1997C5.77956 52.9098 4.81215 53.3086 3.80342 53.3086Z" fill="white"/>
<path d="M100.087 44.0861C97.4458 47.5645 94.0112 50.3676 90.0669 52.264C86.1225 54.1603 81.7816 55.0956 77.4025 54.9924C73.0235 54.8893 68.7318 53.7507 64.882 51.6708C61.0322 49.5908 57.7346 46.6292 55.2615 43.0303C54.8565 42.4485 54.6191 41.7676 54.5749 41.0612C54.5307 40.3548 54.6815 39.6499 55.0108 39.0226C55.3401 38.3953 55.8355 37.8697 56.4434 37.5025C57.0512 37.1353 57.7483 36.9406 58.4593 36.9395C59.0993 36.9433 59.7286 37.1024 60.2928 37.4031C60.8569 37.7038 61.3389 38.137 61.6968 38.6651C62.3926 39.6686 63.1781 40.6074 64.0438 41.4702C65.8828 43.3117 68.0695 44.7732 70.4781 45.7705C72.8866 46.7677 75.4694 47.2811 78.078 47.2811C80.6866 47.2811 83.2694 46.7677 85.678 45.7705C88.0865 44.7732 90.2732 43.3117 92.1123 41.4702C92.7455 40.7965 93.355 40.1031 93.9131 39.3821C94.295 38.8787 94.7976 38.4787 95.3749 38.2185C95.9522 37.9584 96.5858 37.8464 97.2178 37.8929H97.2891C97.9842 37.9477 98.6518 38.1876 99.2219 38.5873C99.792 38.987 100.244 39.5319 100.53 40.165C100.816 40.7981 100.926 41.4961 100.848 42.1859C100.77 42.8757 100.507 43.532 100.087 44.0861Z" fill="white"/>
<path d="M71.4872 0.752805C62.4714 2.80541 53.2815 11.9692 51.2036 20.944C50.7391 22.9543 50.4883 25.0077 50.4556 27.0703C50.4482 27.4517 50.5173 27.8308 50.6588 28.1854C50.8002 28.54 51.0112 28.863 51.2794 29.1355C51.5477 29.408 51.8678 29.6246 52.221 29.7726C52.5743 29.9206 52.9536 29.997 53.3369 29.9975L64.9411 30.0724H103.114C103.799 30.0703 104.456 29.7987 104.94 29.3168C105.425 28.8349 105.699 28.1817 105.702 27.4997C105.702 10.1412 89.6613 -3.3918 71.4872 0.752805ZM58.8698 22.5002C59.7767 19.1112 61.5603 16.0181 64.0426 13.5294C65.8817 11.6878 68.0684 10.2263 70.4769 9.22908C72.8855 8.23181 75.4683 7.71841 78.0769 7.71841C80.6855 7.71841 83.2683 8.23181 85.6769 9.22908C88.0854 10.2263 90.2721 11.6878 92.1112 13.5294C94.5909 16.0195 96.3729 19.1122 97.28 22.5002H58.8698Z" fill="white"/>
<path d="M136.146 49.7077C136.145 50.6631 135.763 51.579 135.084 52.2542C134.405 52.9294 133.484 53.3086 132.524 53.3086H114.378C113.433 53.3086 112.527 52.9351 111.859 52.2701C111.191 51.6052 110.816 50.7033 110.816 49.7629V5.69688C110.816 4.6729 111.225 3.69085 111.952 2.96678C112.679 2.24271 113.666 1.83594 114.695 1.83594C115.723 1.83594 116.71 2.24271 117.437 2.96678C118.165 3.69085 118.573 4.6729 118.573 5.69688V46.095H132.532C133.008 46.096 133.478 46.1903 133.917 46.3724C134.356 46.5545 134.755 46.8209 135.091 47.1564C135.426 47.4919 135.692 47.8898 135.873 48.3276C136.054 48.7654 136.147 49.2343 136.146 49.7077Z" fill="white"/>
<path d="M168.943 7.35187C170.711 9.09101 172.111 11.1641 173.063 13.4495C174.014 15.7349 174.497 18.1865 174.484 20.6603C174.469 25.6287 172.476 30.3886 168.943 33.8978C165.468 37.4988 160.667 39.3386 155.57 39.3386H149.071V49.5583C149.071 50.5137 148.69 51.43 148.012 52.1059C147.334 52.7819 146.414 53.1621 145.454 53.1632H144.935C143.975 53.1632 143.054 52.7834 142.375 52.1073C141.696 51.4313 141.314 50.5144 141.314 49.5583V5.25593C141.314 4.34897 141.676 3.47916 142.32 2.83784C142.964 2.19653 143.838 1.83624 144.749 1.83624H155.57C158.056 1.82214 160.519 2.30281 162.816 3.25001C165.113 4.19721 167.196 5.59181 168.943 7.35187ZM166.64 18.7771C165.729 13.356 160.857 9.47146 155.332 9.47146H149.071V31.6167H155.57C162.318 31.6167 167.811 25.7426 166.624 18.7889L166.64 18.7771Z" fill="white"/>
</svg>
