<svg width="55" height="312" viewBox="0 0 55 312" fill="none" xmlns="http://www.w3.org/2000/svg">
<path d="M36.7727 299.062C36.3371 299.484 36.1369 300.094 36.2362 300.693L37.7313 308.968C37.8574 309.669 37.5614 310.379 36.9745 310.784C36.3993 311.204 35.6341 311.255 35.0067 310.919L27.558 307.034C27.299 306.896 27.0114 306.822 26.7171 306.813H26.2613C26.1032 306.837 25.9485 306.887 25.8072 306.965L18.3567 310.868C17.9884 311.053 17.5713 311.119 17.1627 311.053C16.167 310.865 15.5027 309.916 15.6658 308.915L17.1627 300.641C17.2619 300.037 17.0617 299.423 16.6262 298.994L10.5531 293.108C10.0452 292.615 9.86861 291.875 10.1007 291.208C10.3261 290.542 10.9012 290.056 11.5958 289.946L19.9545 288.734C20.5902 288.668 21.1486 288.281 21.4345 287.709L25.1177 280.158C25.2051 279.99 25.3178 279.835 25.454 279.704L25.6054 279.586C25.6844 279.499 25.7752 279.426 25.8762 279.368L26.0595 279.3L26.3454 279.183H27.0534C27.6858 279.248 28.2425 279.627 28.5334 280.192L32.2654 287.709C32.5345 288.259 33.0575 288.641 33.6613 288.734L42.0199 289.946C42.7263 290.047 43.3166 290.535 43.5504 291.208C43.7707 291.882 43.5807 292.622 43.0627 293.108L36.7727 299.062Z" fill="white"/>
<path d="M43.3167 196.826C43.4378 196.894 43.462 197.039 43.4669 197.094L43.4681 197.116L43.3335 205.801C43.3335 209.266 40.6489 212.091 37.2686 212.265L36.9394 212.273H16.6802C13.257 212.273 10.4655 209.556 10.2944 206.135L10.2861 205.801L10.1683 197.116C10.1683 197.116 10.1683 196.911 10.3197 196.826C10.4543 196.741 10.6226 196.843 10.6394 196.86C14.0384 199.142 18.1272 200.658 22.418 201.288C23.0238 201.373 23.6295 200.982 23.7978 200.368C24.1449 199.059 25.2166 198.169 26.5277 198.063L26.7929 198.052H26.8434C28.2737 198.052 29.4684 198.972 29.8386 200.368C30.0068 200.982 30.6126 201.373 31.2183 201.288C35.5091 200.658 39.598 199.142 42.9969 196.86C42.9969 196.86 43.0306 196.843 43.0643 196.826C43.1316 196.792 43.2325 196.775 43.3167 196.826ZM26.8098 200.488C26.1774 200.488 25.6439 200.974 25.5594 201.593L25.5478 201.765V203.962C25.5478 204.677 26.1199 205.239 26.8098 205.239C27.4576 205.239 27.9782 204.767 28.0604 204.137L28.0718 203.962V201.765C28.0718 201.067 27.5165 200.488 26.8098 200.488ZM28.9804 178.637C31.5044 178.637 33.5741 180.561 33.8938 183.031H37.2254C40.759 183.031 43.6364 185.943 43.6364 189.52C43.6364 189.52 43.5354 191.034 43.5017 193.142C43.4984 193.309 43.4176 193.472 43.2847 193.571C42.4753 194.169 41.735 194.663 41.6676 194.697C38.8744 196.57 35.6286 197.889 32.1707 198.544C31.9452 198.589 31.7231 198.471 31.6087 198.27C30.6395 196.591 28.829 195.497 26.8098 195.497C24.804 195.497 22.9767 196.579 21.9789 198.26C21.8627 198.457 21.644 198.571 21.4202 198.529C17.9909 197.872 14.7451 196.555 11.9687 194.714L10.3534 193.59C10.2187 193.505 10.1346 193.351 10.1346 193.181C10.0841 192.313 10 189.52 10 189.52C10 185.943 12.8773 183.031 16.4109 183.031H19.7258C20.0455 180.561 22.1151 178.637 24.6391 178.637H28.9804ZM28.9804 181.191H24.6391C23.5118 181.191 22.5526 181.975 22.2834 183.031H31.3361C31.0669 181.975 30.1078 181.191 28.9804 181.191Z" fill="white"/>
<path d="M26.4143 249.999C32.1849 249.999 37.1122 250.914 37.1122 254.575C37.1122 258.234 32.2165 259.183 26.4143 259.183C20.6436 259.183 15.7163 258.268 15.7163 254.608C15.7163 250.947 20.612 249.999 26.4143 249.999ZM35.6408 247.795C37.847 247.754 40.2188 248.057 41.0952 248.272C42.952 248.637 44.1733 249.382 44.6792 250.465C45.1069 251.354 45.1069 252.386 44.6792 253.273C43.9052 254.953 41.4099 255.492 40.4401 255.632C40.2398 255.662 40.0787 255.488 40.0998 255.286C40.5952 250.632 36.6543 248.425 35.6348 247.917C35.5911 247.895 35.5821 247.86 35.5866 247.839C35.5896 247.824 35.6077 247.799 35.6408 247.795ZM16.9449 247.792L17.3603 247.795C17.3935 247.8 17.41 247.824 17.413 247.838C17.4176 247.86 17.4085 247.894 17.3663 247.918C16.3453 248.425 12.4044 250.632 12.8998 255.285C12.9209 255.488 12.7613 255.661 12.561 255.632C11.5912 255.493 9.09592 254.954 8.32189 253.274C7.8927 252.385 7.8927 251.355 8.32189 250.466C8.82787 249.383 10.0477 248.637 11.9044 248.271C12.7824 248.057 15.1527 247.754 17.3603 247.795L16.9449 247.792ZM26.4143 232.273C30.3432 232.273 33.4935 235.439 33.4935 239.392C33.4935 243.344 30.3432 246.513 26.4143 246.513C22.4854 246.513 19.335 243.344 19.335 239.392C19.335 235.439 22.4854 232.273 26.4143 232.273ZM36.0248 233.461C39.8197 233.461 42.7999 237.052 41.7849 241.052C41.0997 243.745 38.6195 245.534 35.8561 245.461C35.5791 245.454 35.3065 245.428 35.043 245.382C34.8517 245.349 34.7553 245.133 34.8638 244.972C35.9179 243.412 36.5187 241.535 36.5187 239.521C36.5187 237.418 35.8622 235.458 34.7222 233.851C34.6861 233.801 34.659 233.724 34.6951 233.667C34.7252 233.62 34.7809 233.595 34.8336 233.583C35.2176 233.505 35.6122 233.461 36.0248 233.461ZM16.9741 233.46C17.3867 233.46 17.7812 233.504 18.1667 233.583C18.2179 233.595 18.2752 233.621 18.3053 233.666C18.3399 233.724 18.3143 233.801 18.2782 233.851C17.1382 235.458 16.4816 237.418 16.4816 239.521C16.4816 241.535 17.0825 243.412 18.1366 244.972C18.245 245.132 18.1487 245.349 17.9574 245.382C17.6924 245.429 17.4213 245.454 17.1442 245.461C14.3809 245.534 11.9007 243.745 11.2155 241.052C10.199 237.052 13.1792 233.46 16.9741 233.46Z" fill="white"/>
<path d="M26.8182 125C36.0877 125 43.6364 132.545 43.6364 141.828C43.6364 151.091 36.0877 158.636 26.8182 158.636C17.5487 158.636 10 151.091 10 141.828C10 132.545 17.5487 125 26.8182 125ZM24.9026 135.141C24.5455 135.141 24.2045 135.222 23.8799 135.385C23.474 135.612 23.1493 135.969 22.9708 136.391C22.8571 136.683 22.6786 137.559 22.6786 137.575C22.5 138.532 22.4026 140.09 22.4026 141.81C22.4026 143.451 22.5 144.942 22.6461 145.915C22.6623 145.931 22.8409 147.019 23.0357 147.392C23.3929 148.073 24.0909 148.495 24.8377 148.495H24.9026C25.3896 148.479 26.4123 148.057 26.4123 148.041C28.1331 147.327 31.526 145.104 32.8896 143.627L32.987 143.53C33.1656 143.352 33.3929 143.076 33.4416 143.011C33.7013 142.67 33.8312 142.248 33.8312 141.828C33.8312 141.356 33.6851 140.918 33.4091 140.561C33.3442 140.496 33.1006 140.22 32.8734 139.993C31.5422 138.565 28.0682 136.228 26.25 135.514C25.974 135.402 25.276 135.157 24.9026 135.141Z" fill="white"/>
<path d="M49.409 44.0861C46.7795 47.5646 43.3602 50.3677 39.4335 52.264C35.5068 54.1604 31.1853 55.0956 26.8258 54.9924C22.4663 54.8893 18.1939 53.7507 14.3613 51.6708C10.5287 49.5908 7.2458 46.6292 4.78374 43.0303C4.38061 42.4485 4.14426 41.7676 4.10027 41.0612C4.05629 40.3548 4.20635 39.6499 4.53421 39.0226C4.86207 38.3953 5.35524 37.8697 5.96036 37.5025C6.56548 37.1353 7.2595 36.9406 7.96732 36.9395C8.60439 36.9433 9.2309 37.1024 9.79254 37.4031C10.3542 37.7038 10.834 38.137 11.1903 38.6651C11.883 39.6686 12.665 40.6074 13.5268 41.4702C15.3576 43.3117 17.5345 44.7732 19.9323 45.7705C22.3301 46.7677 24.9013 47.2811 27.4983 47.2811C30.0952 47.2811 32.6665 46.7677 35.0642 45.7705C37.462 44.7732 39.6389 43.3117 41.4698 41.4702C42.1002 40.7965 42.7069 40.1031 43.2625 39.3821C43.6427 38.8787 44.1431 38.4787 44.7178 38.2185C45.2925 37.9584 45.9233 37.8464 46.5524 37.8929H46.6234C47.3154 37.9477 47.98 38.1876 48.5476 38.5873C49.1151 38.987 49.5648 39.5319 49.8496 40.165C50.1343 40.7981 50.2437 41.4961 50.1661 42.1859C50.0886 42.8757 49.8271 43.532 49.409 44.0861Z" fill="white"/>
<path d="M20.9381 0.752805C11.9626 2.80541 2.81374 11.9693 0.745206 20.944C0.282716 22.9543 0.0331136 25.0077 0.000529769 27.0703C-0.00679799 27.4517 0.061957 27.8308 0.202773 28.1854C0.343589 28.54 0.553642 28.863 0.820676 29.1355C1.08771 29.408 1.40637 29.6246 1.75804 29.7726C2.10971 29.9206 2.48735 29.9971 2.86891 29.9975L14.4212 30.0724H52.4232C53.1053 30.0703 53.7589 29.7987 54.2416 29.3168C54.7243 28.8349 54.9969 28.1818 55 27.4997C55 10.1412 39.0309 -3.39181 20.9381 0.752805ZM8.37712 22.5002C9.27996 19.1112 11.0555 16.0182 13.5268 13.5294C15.3576 11.6878 17.5346 10.2264 19.9323 9.22909C22.3301 8.23182 24.9014 7.71842 27.4983 7.71842C30.0952 7.71842 32.6665 8.23182 35.0643 9.22909C37.462 10.2264 39.639 11.6878 41.4698 13.5294C43.9384 16.0195 45.7125 19.1122 46.6155 22.5002H8.37712Z" fill="white"/>
</svg>
